<?xml version="1.0" encoding="utf-8"?>
<!-- Generator: Adobe Illustrator 18.1.0, SVG Export Plug-In . SVG Version: 6.00 Build 0)  -->
<svg version="1.1" id="圖層_1" xmlns="http://www.w3.org/2000/svg" xmlns:xlink="http://www.w3.org/1999/xlink" x="0px" y="0px"
	 viewBox="0 0 100 36.7" enable-background="new 0 0 100 36.7" xml:space="preserve">
<g>
	<path fill="#544A4A" d="M34.8,18.7c0.4,0.6,0.9,1.3,1.5,2.1l1.2,1.6c0.2,0.3,0.4,0.4,0.4,0.5c0.1,0,0.1,0.1,0.2,0.1h0.2v0.4
		c-0.4,0-0.7,0-0.9,0c-0.2,0-0.5,0-0.8,0l-2.2-3c-0.4-0.6-0.9-1.1-1.3-1.6l0.1-0.2c0.2,0,0.4,0,0.5,0c0.7,0,1.3-0.2,1.7-0.5
		c0.4-0.4,0.6-0.9,0.6-1.5c0-0.5-0.2-1-0.5-1.3c-0.3-0.3-0.8-0.5-1.5-0.5c-0.4,0-0.9,0.1-1.3,0.2c-0.1,0.7-0.1,1.4-0.1,2.2v3.1
		c0,1.5,0,2.3,0.1,2.5c0.1,0.2,0.3,0.2,0.7,0.2h0.5v0.4c-0.7,0-1.3,0-1.7,0c-0.4,0-1,0-2,0v-0.4h0.5c0.4,0,0.6-0.1,0.6-0.2
		c0.1-0.2,0.1-1,0.1-2.5V17c0-1.3,0-2-0.1-2.2c-0.1-0.2-0.3-0.2-0.8-0.2h-0.3v-0.4c0.8,0,1.4,0,1.8,0c0.3,0,0.7,0,1.2,0
		c0.6,0,1,0,1.3,0c0.7,0,1.3,0.1,1.7,0.2c0.4,0.2,0.7,0.4,0.9,0.7c0.2,0.3,0.3,0.6,0.3,1c0,0.6-0.2,1.1-0.6,1.6
		C36.2,18.2,35.6,18.5,34.8,18.7z"/>
	<path fill="#544A4A" d="M63,18.8c0.3-0.4,0.7-1.1,1.2-2l1.5-2.5h1v0.2c-0.5,0.6-1.1,1.5-1.9,2.6c-0.7,1.2-1.2,2-1.3,2.4
		c-0.1,0.1-0.1,0.5-0.1,1.1c0,0.8,0,1.4,0.1,1.8c0,0.2,0.1,0.4,0.1,0.4c0.1,0,0.3,0.1,0.7,0.1l0.5,0.1v0.4c-0.7,0-1.3,0-1.7,0l-2,0
		v-0.4h0.5c0.4,0,0.6-0.1,0.7-0.2c0.1-0.1,0.1-0.8,0.1-2c0-0.3,0-0.7,0-1.1c-0.5-1-1.1-1.9-1.5-2.6c-0.5-0.7-0.9-1.3-1.2-1.6
		c-0.2-0.2-0.3-0.3-0.5-0.4c-0.1-0.1-0.3-0.1-0.7-0.1v-0.4c0.2,0,0.5-0.1,1-0.2l0.5-0.1c0.2,0.1,0.4,0.2,0.5,0.3
		c0.2,0.2,0.5,0.7,1,1.4C61.6,16.3,62.2,17.3,63,18.8z"/>
</g>
<g>
	<g>
		<path fill="#FFFFFF" d="M50,22.4c-0.4,0.3-0.8,0.5-1.1,0.7c-0.4,0.1-0.8,0.2-1.2,0.2c-0.5,0-0.9-0.1-1.2-0.2
			c-0.3-0.2-0.6-0.4-0.8-0.7c-0.2-0.3-0.3-0.6-0.3-1c0-0.3,0.1-0.6,0.2-0.9c0.1-0.3,0.3-0.5,0.6-0.7c0.3-0.2,0.6-0.5,1.1-0.7
			c-0.3-0.4-0.5-0.7-0.6-1c-0.1-0.3-0.2-0.6-0.2-0.9c0-0.4,0.1-0.7,0.3-0.9c0.2-0.3,0.4-0.5,0.8-0.6c0.3-0.2,0.7-0.2,1.1-0.2
			c0.3,0,0.5,0,0.7,0.1c0.2,0.1,0.4,0.1,0.6,0.2c0.2,0.1,0.3,0.3,0.4,0.4c0.1,0.2,0.1,0.4,0.1,0.7c0,0.1,0,0.2,0,0.4
			c0,0.1-0.1,0.2-0.1,0.3c-0.1,0.1-0.1,0.2-0.2,0.3c-0.1,0.1-0.2,0.2-0.4,0.4c-0.2,0.1-0.3,0.3-0.6,0.4c-0.2,0.1-0.5,0.3-0.8,0.5
			c0.2,0.3,0.5,0.6,0.9,1.1c0.4,0.5,0.8,0.9,1.2,1.3c0.3-0.3,0.4-0.5,0.6-0.8c0.1-0.3,0.2-0.5,0.2-0.8c0-0.2,0-0.3-0.1-0.4
			c-0.1-0.1-0.2-0.2-0.4-0.2v-0.3h1.6v0.3c0,0.1,0,0.2-0.1,0.3c0,0.1-0.1,0.2-0.1,0.3c0,0.1-0.1,0.2-0.1,0.3c0,0.1-0.1,0.2-0.2,0.3
			c-0.1,0.1-0.1,0.2-0.2,0.3c-0.1,0.1-0.2,0.2-0.2,0.3c-0.1,0.1-0.2,0.2-0.3,0.3c-0.1,0.1-0.2,0.2-0.3,0.3c0.2,0.2,0.4,0.4,0.5,0.5
			c0.1,0.1,0.3,0.2,0.4,0.3s0.2,0.1,0.3,0.1c0.1,0,0.2,0,0.3-0.1c0.1-0.1,0.2-0.2,0.4-0.3l0.3,0.3c-0.2,0.2-0.5,0.4-0.7,0.6
			c-0.3,0.1-0.5,0.2-0.7,0.2c-0.2,0-0.4,0-0.5-0.1s-0.3-0.1-0.4-0.2C50.4,22.8,50.3,22.6,50,22.4z M47.5,19.4
			c-0.4,0.2-0.6,0.5-0.8,0.8c-0.2,0.3-0.3,0.6-0.3,0.9c0,0.3,0.1,0.6,0.2,0.8c0.1,0.2,0.3,0.4,0.5,0.5c0.2,0.1,0.5,0.2,0.8,0.2
			c0.3,0,0.6,0,0.9-0.1c0.3-0.1,0.6-0.2,0.9-0.5c-0.1-0.1-0.3-0.3-0.5-0.6l-0.9-1.1c-0.2-0.2-0.3-0.4-0.4-0.5L47.5,19.4z M48.1,18.6
			c0.5-0.3,0.9-0.5,1.1-0.8c0.3-0.3,0.4-0.6,0.4-0.9c0-0.2,0-0.4-0.1-0.6c-0.1-0.2-0.2-0.3-0.4-0.4c-0.2-0.1-0.3-0.1-0.5-0.1
			c-0.2,0-0.4,0-0.6,0.1c-0.2,0.1-0.3,0.2-0.4,0.4c-0.1,0.2-0.1,0.4-0.1,0.7c0,0.2,0,0.5,0.1,0.7C47.6,17.9,47.8,18.2,48.1,18.6z"/>
	</g>
	<g>
		<linearGradient id="SVGID_1_" gradientUnits="userSpaceOnUse" x1="45.4089" y1="19.2486" x2="52.9501" y2="19.2486">
			<stop  offset="0" style="stop-color:#D5A247"/>
			<stop  offset="0.4611" style="stop-color:#D37D33"/>
			<stop  offset="0.8172" style="stop-color:#FFD570"/>
			<stop  offset="0.964" style="stop-color:#E3A94A"/>
			<stop  offset="1" style="stop-color:#DC9E40"/>
		</linearGradient>
		<path fill="url(#SVGID_1_)" d="M50,22.4c-0.4,0.3-0.8,0.5-1.1,0.7c-0.4,0.1-0.8,0.2-1.2,0.2c-0.5,0-0.9-0.1-1.2-0.2
			c-0.3-0.2-0.6-0.4-0.8-0.7c-0.2-0.3-0.3-0.6-0.3-1c0-0.3,0.1-0.6,0.2-0.9c0.1-0.3,0.3-0.5,0.6-0.7c0.3-0.2,0.6-0.5,1.1-0.7
			c-0.3-0.4-0.5-0.7-0.6-1c-0.1-0.3-0.2-0.6-0.2-0.9c0-0.4,0.1-0.7,0.3-0.9c0.2-0.3,0.4-0.5,0.8-0.6c0.3-0.2,0.7-0.2,1.1-0.2
			c0.3,0,0.5,0,0.7,0.1c0.2,0.1,0.4,0.1,0.6,0.2c0.2,0.1,0.3,0.3,0.4,0.4c0.1,0.2,0.1,0.4,0.1,0.7c0,0.1,0,0.2,0,0.4
			c0,0.1-0.1,0.2-0.1,0.3c-0.1,0.1-0.1,0.2-0.2,0.3c-0.1,0.1-0.2,0.2-0.4,0.4c-0.2,0.1-0.3,0.3-0.6,0.4c-0.2,0.1-0.5,0.3-0.8,0.5
			c0.2,0.3,0.5,0.6,0.9,1.1c0.4,0.5,0.8,0.9,1.2,1.3c0.3-0.3,0.4-0.5,0.6-0.8c0.1-0.3,0.2-0.5,0.2-0.8c0-0.2,0-0.3-0.1-0.4
			c-0.1-0.1-0.2-0.2-0.4-0.2v-0.3h1.6v0.3c0,0.1,0,0.2-0.1,0.3c0,0.1-0.1,0.2-0.1,0.3c0,0.1-0.1,0.2-0.1,0.3c0,0.1-0.1,0.2-0.2,0.3
			c-0.1,0.1-0.1,0.2-0.2,0.3c-0.1,0.1-0.2,0.2-0.2,0.3c-0.1,0.1-0.2,0.2-0.3,0.3c-0.1,0.1-0.2,0.2-0.3,0.3c0.2,0.2,0.4,0.4,0.5,0.5
			c0.1,0.1,0.3,0.2,0.4,0.3s0.2,0.1,0.3,0.1c0.1,0,0.2,0,0.3-0.1c0.1-0.1,0.2-0.2,0.4-0.3l0.3,0.3c-0.2,0.2-0.5,0.4-0.7,0.6
			c-0.3,0.1-0.5,0.2-0.7,0.2c-0.2,0-0.4,0-0.5-0.1s-0.3-0.1-0.4-0.2C50.4,22.8,50.3,22.6,50,22.4z M47.5,19.4
			c-0.4,0.2-0.6,0.5-0.8,0.8c-0.2,0.3-0.3,0.6-0.3,0.9c0,0.3,0.1,0.6,0.2,0.8c0.1,0.2,0.3,0.4,0.5,0.5c0.2,0.1,0.5,0.2,0.8,0.2
			c0.3,0,0.6,0,0.9-0.1c0.3-0.1,0.6-0.2,0.9-0.5c-0.1-0.1-0.3-0.3-0.5-0.6l-0.9-1.1c-0.2-0.2-0.3-0.4-0.4-0.5L47.5,19.4z M48.1,18.6
			c0.5-0.3,0.9-0.5,1.1-0.8c0.3-0.3,0.4-0.6,0.4-0.9c0-0.2,0-0.4-0.1-0.6c-0.1-0.2-0.2-0.3-0.4-0.4c-0.2-0.1-0.3-0.1-0.5-0.1
			c-0.2,0-0.4,0-0.6,0.1c-0.2,0.1-0.3,0.2-0.4,0.4c-0.1,0.2-0.1,0.4-0.1,0.7c0,0.2,0,0.5,0.1,0.7C47.6,17.9,47.8,18.2,48.1,18.6z"/>
	</g>
</g>
<g>
	<linearGradient id="SVGID_2_" gradientUnits="userSpaceOnUse" x1="-0.1657" y1="7.1701" x2="80.5891" y2="7.1701">
		<stop  offset="0" style="stop-color:#D5A247"/>
		<stop  offset="0.5054" style="stop-color:#F4CA70"/>
		<stop  offset="0.9946" style="stop-color:#DC9E40"/>
	</linearGradient>
	<path fill="url(#SVGID_2_)" d="M26.1,9.3c-2-0.1-4-0.3-5.6-1.5c-1.1-0.8-1.7-2-2.7-2.9c-0.1-0.1-0.3,0-0.2,0.1
		c0.5,1.2,1.7,2.4,2.7,3.1C22,9.3,24.1,9.6,26.1,9.3C26.2,9.4,26.2,9.3,26.1,9.3L26.1,9.3z"/>
	<linearGradient id="SVGID_3_" gradientUnits="userSpaceOnUse" x1="-0.1657" y1="7.2781" x2="80.5891" y2="7.2781">
		<stop  offset="0" style="stop-color:#D5A247"/>
		<stop  offset="0.5054" style="stop-color:#F4CA70"/>
		<stop  offset="0.9946" style="stop-color:#DC9E40"/>
	</linearGradient>
	<path fill="url(#SVGID_3_)" d="M17.1,6.6C17.6,7,18,7.3,18.5,7.5C19,7.7,19.7,8,20.2,8c0.1,0,0.1-0.1,0.1-0.2
		C20,7.5,19.4,7.5,19,7.3C18.4,7.1,17.7,7,17.1,6.6C17.1,6.5,17.1,6.6,17.1,6.6L17.1,6.6z"/>
	<linearGradient id="SVGID_4_" gradientUnits="userSpaceOnUse" x1="-0.1657" y1="5.8667" x2="80.5891" y2="5.8667">
		<stop  offset="0" style="stop-color:#D5A247"/>
		<stop  offset="0.5054" style="stop-color:#F4CA70"/>
		<stop  offset="0.9946" style="stop-color:#DC9E40"/>
	</linearGradient>
	<path fill="url(#SVGID_4_)" d="M17.5,6.7c-0.5-1.2-1.8-1.9-3.1-1.9c-0.1,0-0.1,0.1-0.1,0.1c0.2,0.6,0.5,1.2,1,1.5
		c0.3,0.2,0.6,0.3,0.9,0.3c0.4,0.1,0.8,0,1.1,0.1C17.5,7,17.7,6.7,17.5,6.7c-0.5-0.3-1-0.1-1.5-0.3c-0.8-0.2-1.2-0.8-1.5-1.6
		C14.5,4.9,14.4,5,14.4,5c0.5,0.2,1.2,0.3,1.7,0.6c0.5,0.3,0.8,0.9,1.3,1.2C17.5,6.8,17.5,6.8,17.5,6.7L17.5,6.7z"/>
	<linearGradient id="SVGID_5_" gradientUnits="userSpaceOnUse" x1="-0.1657" y1="5.1511" x2="80.5891" y2="5.1511">
		<stop  offset="0" style="stop-color:#D5A247"/>
		<stop  offset="0.5054" style="stop-color:#F4CA70"/>
		<stop  offset="0.9946" style="stop-color:#DC9E40"/>
	</linearGradient>
	<path fill="url(#SVGID_5_)" d="M18.4,5.5c-0.1-0.4-0.3-0.8-0.7-1c-0.2-0.1-0.3,0-0.4,0.1c-0.3,0.4,0.3,0.9,0.6,1.1
		c0.2,0.2,0.5-0.2,0.4-0.4c-0.1-0.1-0.2-0.2-0.3-0.3C18,5,17.9,5,17.9,5c-0.1-0.1,0-0.1-0.1,0.1c-0.1,0-0.3,0-0.4,0
		c0.2,0.1,0.3,0.4,0.4,0.6C18,5.9,18.4,5.8,18.4,5.5L18.4,5.5z"/>
	<linearGradient id="SVGID_6_" gradientUnits="userSpaceOnUse" x1="-0.1657" y1="6.7153" x2="80.5891" y2="6.7153">
		<stop  offset="0" style="stop-color:#D5A247"/>
		<stop  offset="0.5054" style="stop-color:#F4CA70"/>
		<stop  offset="0.9946" style="stop-color:#DC9E40"/>
	</linearGradient>
	<path fill="url(#SVGID_6_)" d="M2.8,3.7c3,1.9,6.2,3.4,9.6,4.4c3.1,0.9,6.2,1.3,9.4,1.5c2.8,0.2,5.7,0.3,8.6,0.2
		c1.3,0,2.6-0.2,3.9-0.3c0.2,0,0.2-0.3,0-0.3c-1.2,0.1-2.5-0.1-3.7-0.1c-2.7,0-5.4,0-8.1-0.2c-3.2-0.2-6.4-0.6-9.5-1.4
		c-3.5-0.9-6.9-2.4-10-4.2C2.8,3.4,2.7,3.6,2.8,3.7L2.8,3.7z"/>
	<linearGradient id="SVGID_7_" gradientUnits="userSpaceOnUse" x1="-0.1657" y1="1.7914" x2="80.5891" y2="1.7914">
		<stop  offset="0" style="stop-color:#D5A247"/>
		<stop  offset="0.5054" style="stop-color:#F4CA70"/>
		<stop  offset="0.9946" style="stop-color:#DC9E40"/>
	</linearGradient>
	<path fill="url(#SVGID_7_)" d="M5.9,3.1C5.7,1.8,4.6,0.7,3.4,0.3c-0.1,0-0.1,0-0.1,0.1c0,0.7,0.2,1.3,0.6,1.8
		c0.2,0.2,0.5,0.4,0.8,0.6C5,3,5.4,3,5.6,3.3C5.8,3.4,6,3.2,5.9,3.1c-0.3-0.5-1-0.5-1.4-0.8c-0.7-0.5-0.9-1.2-1-2
		c-0.1,0-0.1,0.1-0.2,0.1c0.4,0.4,1.1,0.7,1.5,1.1c0.4,0.5,0.5,1.1,1,1.6C5.8,3.2,5.9,3.2,5.9,3.1L5.9,3.1z"/>
	<linearGradient id="SVGID_8_" gradientUnits="userSpaceOnUse" x1="-0.1657" y1="5.3159" x2="80.5891" y2="5.3159">
		<stop  offset="0" style="stop-color:#D5A247"/>
		<stop  offset="0.5054" style="stop-color:#F4CA70"/>
		<stop  offset="0.9946" style="stop-color:#DC9E40"/>
	</linearGradient>
	<path fill="url(#SVGID_8_)" d="M5.6,3c1.6,2.2,4.1,4,6.7,4.8c0.1,0,0.2-0.1,0.1-0.2c-1.3-0.8-2.7-1.3-3.9-2.2
		C7.5,4.6,6.5,3.8,5.6,3C5.6,2.9,5.6,2.9,5.6,3L5.6,3z"/>
	<linearGradient id="SVGID_9_" gradientUnits="userSpaceOnUse" x1="-0.1657" y1="8.8932" x2="80.5891" y2="8.8932">
		<stop  offset="0" style="stop-color:#D5A247"/>
		<stop  offset="0.5054" style="stop-color:#F4CA70"/>
		<stop  offset="0.9946" style="stop-color:#DC9E40"/>
	</linearGradient>
	<path fill="url(#SVGID_9_)" d="M9,8.5c1,0.9,2.6,1,3.9,0.8c0.1,0,0.1-0.2,0-0.2c-0.6,0-1.3,0.1-1.9,0C10.3,9,9.7,8.7,9,8.5
		C9,8.4,8.9,8.4,9,8.5L9,8.5z"/>
	<linearGradient id="SVGID_10_" gradientUnits="userSpaceOnUse" x1="-0.1657" y1="12.8242" x2="80.5891" y2="12.8242">
		<stop  offset="0" style="stop-color:#D5A247"/>
		<stop  offset="0.5054" style="stop-color:#F4CA70"/>
		<stop  offset="0.9946" style="stop-color:#DC9E40"/>
	</linearGradient>
	<path fill="url(#SVGID_10_)" d="M25.3,10.3c-1.1,0.3-2,0.9-2.8,1.6c-1,0.9-2.1,2-2.7,3.2c-0.1,0.1,0.1,0.4,0.3,0.3
		C22.1,13.9,22.8,11.1,25.3,10.3C25.4,10.3,25.4,10.2,25.3,10.3L25.3,10.3z"/>
	<linearGradient id="SVGID_11_" gradientUnits="userSpaceOnUse" x1="-0.1657" y1="14.9658" x2="80.5891" y2="14.9658">
		<stop  offset="0" style="stop-color:#D5A247"/>
		<stop  offset="0.5054" style="stop-color:#F4CA70"/>
		<stop  offset="0.9946" style="stop-color:#DC9E40"/>
	</linearGradient>
	<path fill="url(#SVGID_11_)" d="M20.1,15.2c0.2,0,0.4-0.1,0.6-0.3c0.1-0.1,0.2-0.4,0-0.5c-0.1-0.1-0.2-0.2-0.4-0.1
		c-0.3,0.1-0.5,0.3-0.7,0.6c-0.2,0.2-0.2,0.6,0.1,0.7c0.2,0.1,0.5-0.1,0.7-0.2c0.2-0.2,0.3-0.5,0.2-0.7c-0.1-0.1-0.2-0.1-0.3,0
		c-0.1,0.1-0.1,0.2-0.2,0.3c0,0,0,0.1-0.1,0.1c0,0-0.1,0.1-0.1,0.1C19.9,15.1,20,15.2,20.1,15.2C20.1,15.2,20.1,15.2,20.1,15.2
		c0.1-0.1,0.1-0.1,0.2-0.2c0.1-0.1,0.2-0.2,0.3-0.2c-0.1,0-0.2,0-0.3,0c0-0.1,0-0.2-0.1-0.1c0,0-0.1,0-0.1,0.1
		c-0.1,0-0.1,0.1-0.2,0.1C19.8,15,19.9,15.3,20.1,15.2L20.1,15.2z"/>
	<linearGradient id="SVGID_12_" gradientUnits="userSpaceOnUse" x1="-0.1657" y1="11.1915" x2="80.5891" y2="11.1915">
		<stop  offset="0" style="stop-color:#D5A247"/>
		<stop  offset="0.5054" style="stop-color:#F4CA70"/>
		<stop  offset="0.9946" style="stop-color:#DC9E40"/>
	</linearGradient>
	<path fill="url(#SVGID_12_)" d="M16.5,11.6c1.2,0.1,2.4,0,3.6-0.1c0.9-0.1,2-0.1,2.8-0.5c0.1,0,0.1-0.2,0-0.2
		c-0.9-0.2-1.8,0.1-2.7,0.3c-1.2,0.2-2.5,0.3-3.8,0.4C16.4,11.5,16.4,11.6,16.5,11.6L16.5,11.6z"/>
	<linearGradient id="SVGID_13_" gradientUnits="userSpaceOnUse" x1="-0.1657" y1="11.5196" x2="80.5891" y2="11.5196">
		<stop  offset="0" style="stop-color:#D5A247"/>
		<stop  offset="0.5054" style="stop-color:#F4CA70"/>
		<stop  offset="0.9946" style="stop-color:#DC9E40"/>
	</linearGradient>
	<path fill="url(#SVGID_13_)" d="M16.1,11.2c-0.2-0.1-0.4-0.1-0.6,0c-0.2,0.1-0.2,0.4-0.1,0.5c0.3,0.3,0.8,0.3,1.1,0
		c0.2-0.1,0.2-0.5-0.1-0.6c-0.2-0.1-0.4-0.1-0.6,0c-0.3,0.1-0.3,0.6,0.1,0.6c0.1,0,0.3,0,0.4,0c0-0.2,0-0.4-0.1-0.6
		c-0.2,0.1-0.3,0.1-0.4,0c0,0.2,0,0.4,0,0.5c0.1,0,0.2-0.1,0.2-0.1C16.3,11.5,16.3,11.3,16.1,11.2L16.1,11.2z"/>
	<linearGradient id="SVGID_14_" gradientUnits="userSpaceOnUse" x1="-0.1657" y1="5.3533" x2="80.5891" y2="5.3533">
		<stop  offset="0" style="stop-color:#D5A247"/>
		<stop  offset="0.5054" style="stop-color:#F4CA70"/>
		<stop  offset="0.9946" style="stop-color:#DC9E40"/>
	</linearGradient>
	<path fill="url(#SVGID_14_)" d="M8.6,2.5C9.2,3.8,10,5,11,6c0.7,0.8,2,2,3.1,2.2c0.1,0,0.2-0.1,0.1-0.1c-0.3-0.4-0.7-0.6-1.1-0.9
		c-0.6-0.4-1.2-0.8-1.7-1.3c-1.1-1-1.8-2.2-2.6-3.4C8.7,2.4,8.6,2.5,8.6,2.5L8.6,2.5z"/>
	<linearGradient id="SVGID_15_" gradientUnits="userSpaceOnUse" x1="-0.1657" y1="2.3844" x2="80.5891" y2="2.3844">
		<stop  offset="0" style="stop-color:#D5A247"/>
		<stop  offset="0.5054" style="stop-color:#F4CA70"/>
		<stop  offset="0.9946" style="stop-color:#DC9E40"/>
	</linearGradient>
	<path fill="url(#SVGID_15_)" d="M8.8,2.3C8.7,2.1,8.6,1.9,8.4,1.8C8.2,1.7,7.9,1.8,8,2.1C8,2.5,8.3,2.8,8.7,3
		c0.3,0.1,0.6-0.1,0.4-0.4C9,2.3,8.8,2.1,8.6,2C8.4,1.9,8,2.2,8.2,2.4c0.1,0.2,0.2,0.3,0.3,0.5C8.7,2.7,8.8,2.6,9,2.4
		C8.8,2.3,8.6,2.2,8.6,2C8.4,2.1,8.3,2.3,8.2,2.4c0.1,0,0.2,0.1,0.3,0.1C8.6,2.6,8.9,2.4,8.8,2.3L8.8,2.3z"/>
	<linearGradient id="SVGID_16_" gradientUnits="userSpaceOnUse" x1="-0.1657" y1="6.5141" x2="80.5891" y2="6.5141">
		<stop  offset="0" style="stop-color:#D5A247"/>
		<stop  offset="0.5054" style="stop-color:#F4CA70"/>
		<stop  offset="0.9946" style="stop-color:#DC9E40"/>
	</linearGradient>
	<path fill="url(#SVGID_16_)" d="M3,6.6C4,6.9,5,7,6.1,6.9c0.7-0.1,1.7-0.1,2.3-0.5c0.1-0.1,0.1-0.2,0-0.2C7.7,6,6.9,6.3,6.3,6.4
		C5.1,6.6,4.1,6.5,3,6.5C2.9,6.4,2.9,6.6,3,6.6L3,6.6z"/>
	<linearGradient id="SVGID_17_" gradientUnits="userSpaceOnUse" x1="-0.1657" y1="6.6252" x2="80.5891" y2="6.6252">
		<stop  offset="0" style="stop-color:#D5A247"/>
		<stop  offset="0.5054" style="stop-color:#F4CA70"/>
		<stop  offset="0.9946" style="stop-color:#DC9E40"/>
	</linearGradient>
	<path fill="url(#SVGID_17_)" d="M2.8,6.3c-0.2-0.1-0.4,0-0.5,0.1C2.1,6.4,2.1,6.7,2.2,6.8c0.3,0.3,0.8,0.2,1.1,0
		c0.2-0.1,0.2-0.5-0.1-0.6c-0.2,0-0.4,0-0.6,0C2.2,6.4,2.4,6.9,2.8,6.8c0.1,0,0.2,0,0.3,0c0-0.2,0-0.4-0.1-0.6
		C2.9,6.4,2.8,6.4,2.6,6.3c0,0.2,0,0.4,0,0.5c0.1-0.1,0.2-0.2,0.3-0.2C3.1,6.6,3,6.3,2.8,6.3L2.8,6.3z"/>
	<linearGradient id="SVGID_18_" gradientUnits="userSpaceOnUse" x1="-0.1657" y1="8.3702" x2="80.5891" y2="8.3702">
		<stop  offset="0" style="stop-color:#D5A247"/>
		<stop  offset="0.5054" style="stop-color:#F4CA70"/>
		<stop  offset="0.9946" style="stop-color:#DC9E40"/>
	</linearGradient>
	<path fill="url(#SVGID_18_)" d="M9.2,8.2C9.1,8,9,7.9,8.8,7.8C8.5,7.8,8.3,8,8.4,8.2c0.1,0.4,0.5,0.6,0.9,0.7
		c0.3,0,0.5-0.3,0.3-0.5C9.4,8.2,9.2,8.1,9,8C8.7,7.9,8.5,8.3,8.8,8.5C8.9,8.6,9,8.7,9.1,8.8c0.1-0.2,0.2-0.3,0.3-0.5
		C9.2,8.3,9.1,8.2,9,8C8.9,8.1,8.8,8.3,8.7,8.5c0.1,0,0.2,0,0.3,0C9.2,8.6,9.3,8.3,9.2,8.2L9.2,8.2z"/>
	<linearGradient id="SVGID_19_" gradientUnits="userSpaceOnUse" x1="-0.1657" y1="11.5876" x2="80.5891" y2="11.5876">
		<stop  offset="0" style="stop-color:#D5A247"/>
		<stop  offset="0.5054" style="stop-color:#F4CA70"/>
		<stop  offset="0.9946" style="stop-color:#DC9E40"/>
	</linearGradient>
	<path fill="url(#SVGID_19_)" d="M28.4,9.5c-2.2,0.1-4.4,0.8-6.5,1.5c-1.6,0.5-3.9,1.1-4.9,2.5c-0.1,0.1,0.1,0.3,0.2,0.2
		c0.9-0.5,1.6-1.1,2.6-1.5c0.9-0.3,1.7-0.6,2.6-0.9c2-0.7,3.9-1.3,6-1.6C28.6,9.7,28.6,9.5,28.4,9.5L28.4,9.5z"/>
	<linearGradient id="SVGID_20_" gradientUnits="userSpaceOnUse" x1="-0.1657" y1="15.0419" x2="80.5891" y2="15.0419">
		<stop  offset="0" style="stop-color:#D5A247"/>
		<stop  offset="0.5054" style="stop-color:#F4CA70"/>
		<stop  offset="0.9946" style="stop-color:#DC9E40"/>
	</linearGradient>
	<path fill="url(#SVGID_20_)" d="M17.4,13.2c-1.7,0.4-3.4,1.7-3,3.7c0,0.2,0.3,0.2,0.4,0c0.5-0.7,1.2-1.1,1.8-1.7
		c0.5-0.6,0.8-1.3,1.1-2c0.1-0.1-0.1-0.3-0.2-0.2c-0.6,0.6-0.7,1.5-1.4,2.1c-0.6,0.5-1.2,0.9-1.6,1.6c0.1,0,0.2,0,0.4,0
		c-0.1-0.9,0.2-1.8,0.9-2.3c0.5-0.5,1.2-0.7,1.8-1.1C17.6,13.3,17.5,13.2,17.4,13.2L17.4,13.2z"/>
	<linearGradient id="SVGID_21_" gradientUnits="userSpaceOnUse" x1="-0.1657" y1="12.141" x2="80.5891" y2="12.141">
		<stop  offset="0" style="stop-color:#D5A247"/>
		<stop  offset="0.5054" style="stop-color:#F4CA70"/>
		<stop  offset="0.9946" style="stop-color:#DC9E40"/>
	</linearGradient>
	<path fill="url(#SVGID_21_)" d="M23.7,14.1c0.3-0.6,0.5-1.2,0.7-1.9c0.2-0.7,0.6-1.2,0.9-1.9c0-0.1-0.1-0.2-0.1-0.1
		C23.9,11,24,12.9,23.7,14.1C23.6,14.1,23.7,14.1,23.7,14.1L23.7,14.1z"/>
	<linearGradient id="SVGID_22_" gradientUnits="userSpaceOnUse" x1="-0.1657" y1="15.3664" x2="80.5891" y2="15.3664">
		<stop  offset="0" style="stop-color:#D5A247"/>
		<stop  offset="0.5054" style="stop-color:#F4CA70"/>
		<stop  offset="0.9946" style="stop-color:#DC9E40"/>
	</linearGradient>
	<path fill="url(#SVGID_22_)" d="M23.7,13.7c-1.1,0.7-1.6,2-1.6,3.3c0,0.1,0.1,0.1,0.1,0.1c0.6-0.2,1.1-0.5,1.4-1.1
		c0.3-0.7,0.1-1.4,0.3-2.1C24,13.7,23.8,13.5,23.7,13.7c-0.3,0.5-0.1,1-0.2,1.5c-0.1,0.9-0.5,1.4-1.3,1.8c0.1,0,0.1,0.1,0.2,0.1
		c0.2-0.5,0.2-1.1,0.4-1.7c0.2-0.7,0.7-1,1.1-1.6C23.9,13.7,23.8,13.6,23.7,13.7L23.7,13.7z"/>
	<linearGradient id="SVGID_23_" gradientUnits="userSpaceOnUse" x1="-0.1657" y1="10.3009" x2="80.5891" y2="10.3009">
		<stop  offset="0" style="stop-color:#D5A247"/>
		<stop  offset="0.5054" style="stop-color:#F4CA70"/>
		<stop  offset="0.9946" style="stop-color:#DC9E40"/>
	</linearGradient>
	<path fill="url(#SVGID_23_)" d="M16.4,8.6c-1.6,0-3.1,0.3-4.6,0.8c-1.3,0.5-2.9,1.3-3.8,2.4C8,11.9,8.1,12,8.2,12
		c1.3-0.7,2.5-1.7,3.9-2.3c1.4-0.6,2.9-0.8,4.4-0.9C16.6,8.8,16.6,8.6,16.4,8.6L16.4,8.6z"/>
	<linearGradient id="SVGID_24_" gradientUnits="userSpaceOnUse" x1="-0.1657" y1="11.2191" x2="80.5891" y2="11.2191">
		<stop  offset="0" style="stop-color:#D5A247"/>
		<stop  offset="0.5054" style="stop-color:#F4CA70"/>
		<stop  offset="0.9946" style="stop-color:#DC9E40"/>
	</linearGradient>
	<path fill="url(#SVGID_24_)" d="M11.3,9.8c-0.5,0.4-0.9,0.9-1.3,1.3c-0.3,0.4-0.8,0.9-0.9,1.5c0,0.1,0,0.1,0.1,0.1
		c0.4-0.4,0.7-1,1.1-1.5c0.4-0.4,0.8-0.8,1.1-1.3C11.5,9.8,11.4,9.7,11.3,9.8L11.3,9.8z"/>
	<linearGradient id="SVGID_25_" gradientUnits="userSpaceOnUse" x1="-0.1657" y1="13.7437" x2="80.5891" y2="13.7437">
		<stop  offset="0" style="stop-color:#D5A247"/>
		<stop  offset="0.5054" style="stop-color:#F4CA70"/>
		<stop  offset="0.9946" style="stop-color:#DC9E40"/>
	</linearGradient>
	<path fill="url(#SVGID_25_)" d="M9.1,12.6c-0.9,0.6-1.8,1.2-2,2.4c0,0.1,0.1,0.3,0.3,0.2c0.5-0.3,1.2-0.6,1.5-1.1
		c0.2-0.4,0.5-1,0.5-1.5c0-0.1-0.2-0.2-0.3-0.1c-0.2,0.4-0.2,0.9-0.4,1.3c-0.3,0.5-0.9,0.8-1.4,1.1c0.1,0.1,0.2,0.1,0.3,0.2
		c0.1-0.6,0.3-1.1,0.8-1.4C8.6,13.3,9,13,9.1,12.6C9.3,12.6,9.2,12.5,9.1,12.6L9.1,12.6z"/>
	<linearGradient id="SVGID_26_" gradientUnits="userSpaceOnUse" x1="-0.1657" y1="2.5969" x2="80.5891" y2="2.5969">
		<stop  offset="0" style="stop-color:#D5A247"/>
		<stop  offset="0.5054" style="stop-color:#F4CA70"/>
		<stop  offset="0.9946" style="stop-color:#DC9E40"/>
	</linearGradient>
	<path fill="url(#SVGID_26_)" d="M3.2,3.6C2.8,2.4,1.6,1.5,0.3,1.3c-0.1,0-0.2,0-0.1,0.1c0.2,0.6,0.4,1.3,0.9,1.7
		c0.2,0.2,0.5,0.3,0.7,0.4c0.4,0.1,0.8,0.1,1.1,0.3C3.1,3.9,3.3,3.7,3.2,3.6c-0.5-0.4-1-0.3-1.5-0.5c-0.7-0.3-1-1-1.2-1.7
		c-0.1,0-0.1,0.1-0.2,0.1C0.7,1.9,1.3,2,1.8,2.3c0.5,0.4,0.7,1,1.2,1.4C3.1,3.7,3.2,3.7,3.2,3.6L3.2,3.6z"/>
	<linearGradient id="SVGID_27_" gradientUnits="userSpaceOnUse" x1="-0.1657" y1="9.5287" x2="80.5891" y2="9.5287">
		<stop  offset="0" style="stop-color:#D5A247"/>
		<stop  offset="0.5054" style="stop-color:#F4CA70"/>
		<stop  offset="0.9946" style="stop-color:#DC9E40"/>
	</linearGradient>
	<path fill="url(#SVGID_27_)" d="M43.8,9.2c-4.1,0-8.2,0-12.3,0c-0.4,0-0.4,0.6,0,0.6c4.1,0,8.2,0,12.3,0
		C44.2,9.8,44.2,9.2,43.8,9.2L43.8,9.2z"/>
	<linearGradient id="SVGID_28_" gradientUnits="userSpaceOnUse" x1="-0.1657" y1="9.5287" x2="80.5891" y2="9.5287">
		<stop  offset="0" style="stop-color:#D5A247"/>
		<stop  offset="0.5054" style="stop-color:#F4CA70"/>
		<stop  offset="0.9946" style="stop-color:#DC9E40"/>
	</linearGradient>
	<path fill="url(#SVGID_28_)" d="M24.1,9.8c6.4,0,12.8,0,19.2,0c10.1,0,20.2,0,30.3,0c2.3,0,4.7,0,7,0c0.4,0,0.4-0.6,0-0.6
		c-6.4,0-12.8,0-19.2,0c-10.1,0-20.2,0-30.3,0c-2.3,0-4.7,0-7,0C23.7,9.2,23.7,9.8,24.1,9.8L24.1,9.8z"/>
</g>
<g>
	
		<linearGradient id="SVGID_29_" gradientUnits="userSpaceOnUse" x1="-39.8127" y1="26.8027" x2="40.9422" y2="26.8027" gradientTransform="matrix(-1 0 0 1 60.4112 0)">
		<stop  offset="0" style="stop-color:#D5A247"/>
		<stop  offset="0.5054" style="stop-color:#F4CA70"/>
		<stop  offset="0.9946" style="stop-color:#DC9E40"/>
	</linearGradient>
	<path fill="url(#SVGID_29_)" d="M73.9,28.9c2-0.1,4-0.3,5.6-1.5c1.1-0.8,1.7-2,2.7-2.9c0.1-0.1,0.3,0,0.2,0.1
		c-0.5,1.2-1.7,2.4-2.7,3.1C78,29,75.9,29.2,73.9,28.9C73.9,29,73.9,28.9,73.9,28.9L73.9,28.9z"/>
	
		<linearGradient id="SVGID_30_" gradientUnits="userSpaceOnUse" x1="-39.8127" y1="26.9108" x2="40.9422" y2="26.9108" gradientTransform="matrix(-1 0 0 1 60.4112 0)">
		<stop  offset="0" style="stop-color:#D5A247"/>
		<stop  offset="0.5054" style="stop-color:#F4CA70"/>
		<stop  offset="0.9946" style="stop-color:#DC9E40"/>
	</linearGradient>
	<path fill="url(#SVGID_30_)" d="M82.9,26.2c-0.4,0.4-0.9,0.7-1.4,0.9c-0.5,0.2-1.1,0.5-1.7,0.5c-0.1,0-0.1-0.1-0.1-0.2
		c0.3-0.3,0.8-0.4,1.2-0.5C81.6,26.8,82.4,26.6,82.9,26.2C82.9,26.2,83,26.2,82.9,26.2L82.9,26.2z"/>
	
		<linearGradient id="SVGID_31_" gradientUnits="userSpaceOnUse" x1="-39.8127" y1="25.4993" x2="40.9422" y2="25.4993" gradientTransform="matrix(-1 0 0 1 60.4112 0)">
		<stop  offset="0" style="stop-color:#D5A247"/>
		<stop  offset="0.5054" style="stop-color:#F4CA70"/>
		<stop  offset="0.9946" style="stop-color:#DC9E40"/>
	</linearGradient>
	<path fill="url(#SVGID_31_)" d="M82.5,26.3c0.5-1.2,1.8-1.9,3.1-1.9c0.1,0,0.1,0.1,0.1,0.1c-0.2,0.6-0.5,1.2-1,1.5
		c-0.3,0.2-0.6,0.3-0.9,0.3c-0.4,0.1-0.8,0-1.1,0.1C82.5,26.6,82.4,26.4,82.5,26.3c0.5-0.3,1-0.1,1.5-0.3c0.8-0.2,1.2-0.8,1.5-1.6
		c0.1,0.1,0.1,0.1,0.2,0.2c-0.5,0.2-1.2,0.3-1.7,0.6c-0.5,0.3-0.8,0.9-1.3,1.2C82.6,26.5,82.5,26.4,82.5,26.3L82.5,26.3z"/>
	
		<linearGradient id="SVGID_32_" gradientUnits="userSpaceOnUse" x1="-39.8127" y1="24.7837" x2="40.9422" y2="24.7837" gradientTransform="matrix(-1 0 0 1 60.4112 0)">
		<stop  offset="0" style="stop-color:#D5A247"/>
		<stop  offset="0.5054" style="stop-color:#F4CA70"/>
		<stop  offset="0.9946" style="stop-color:#DC9E40"/>
	</linearGradient>
	<path fill="url(#SVGID_32_)" d="M81.7,25.1c0.1-0.4,0.3-0.8,0.7-1c0.2-0.1,0.3,0,0.4,0.1c0.3,0.4-0.3,0.9-0.6,1.1
		c-0.2,0.2-0.5-0.2-0.4-0.4c0.1-0.1,0.2-0.2,0.3-0.3c0,0,0.1-0.1,0.1-0.1c0.1-0.1,0-0.1,0.1,0.1c0.1,0,0.3,0,0.4,0
		c-0.2,0.1-0.3,0.4-0.4,0.6C82.1,25.5,81.6,25.4,81.7,25.1L81.7,25.1z"/>
	
		<linearGradient id="SVGID_33_" gradientUnits="userSpaceOnUse" x1="-39.8127" y1="26.3479" x2="40.9422" y2="26.3479" gradientTransform="matrix(-1 0 0 1 60.4112 0)">
		<stop  offset="0" style="stop-color:#D5A247"/>
		<stop  offset="0.5054" style="stop-color:#F4CA70"/>
		<stop  offset="0.9946" style="stop-color:#DC9E40"/>
	</linearGradient>
	<path fill="url(#SVGID_33_)" d="M97.2,23.3c-3,1.9-6.2,3.4-9.6,4.4c-3.1,0.9-6.2,1.3-9.4,1.5c-2.8,0.2-5.7,0.3-8.6,0.2
		c-1.3,0-2.6-0.2-3.9-0.3c-0.2,0-0.2-0.3,0-0.3c1.2,0.1,2.5-0.1,3.7-0.1c2.7,0,5.4,0,8.1-0.2c3.2-0.2,6.4-0.6,9.5-1.4
		c3.5-0.9,6.9-2.4,10-4.2C97.2,23.1,97.4,23.3,97.2,23.3L97.2,23.3z"/>
	
		<linearGradient id="SVGID_34_" gradientUnits="userSpaceOnUse" x1="-39.8127" y1="21.4241" x2="40.9422" y2="21.4241" gradientTransform="matrix(-1 0 0 1 60.4112 0)">
		<stop  offset="0" style="stop-color:#D5A247"/>
		<stop  offset="0.5054" style="stop-color:#F4CA70"/>
		<stop  offset="0.9946" style="stop-color:#DC9E40"/>
	</linearGradient>
	<path fill="url(#SVGID_34_)" d="M94.2,22.7c0.2-1.3,1.3-2.4,2.5-2.8c0.1,0,0.1,0,0.1,0.1c0,0.7-0.2,1.3-0.6,1.8
		c-0.2,0.2-0.5,0.4-0.8,0.6c-0.3,0.2-0.7,0.2-1,0.5C94.3,23,94.1,22.8,94.2,22.7c0.3-0.5,1-0.5,1.4-0.8c0.7-0.5,0.9-1.2,1-2
		c0.1,0,0.1,0.1,0.2,0.1c-0.4,0.4-1.1,0.7-1.5,1.1c-0.4,0.5-0.5,1.1-1,1.6C94.3,22.9,94.2,22.8,94.2,22.7L94.2,22.7z"/>
	
		<linearGradient id="SVGID_35_" gradientUnits="userSpaceOnUse" x1="-39.8127" y1="24.9485" x2="40.9422" y2="24.9485" gradientTransform="matrix(-1 0 0 1 60.4112 0)">
		<stop  offset="0" style="stop-color:#D5A247"/>
		<stop  offset="0.5054" style="stop-color:#F4CA70"/>
		<stop  offset="0.9946" style="stop-color:#DC9E40"/>
	</linearGradient>
	<path fill="url(#SVGID_35_)" d="M94.5,22.6c-1.6,2.2-4.1,4-6.7,4.8c-0.1,0-0.2-0.1-0.1-0.2c1.3-0.8,2.7-1.3,3.9-2.2
		C92.5,24.3,93.5,23.4,94.5,22.6C94.4,22.5,94.5,22.5,94.5,22.6L94.5,22.6z"/>
	
		<linearGradient id="SVGID_36_" gradientUnits="userSpaceOnUse" x1="-39.8127" y1="28.5258" x2="40.9422" y2="28.5258" gradientTransform="matrix(-1 0 0 1 60.4112 0)">
		<stop  offset="0" style="stop-color:#D5A247"/>
		<stop  offset="0.5054" style="stop-color:#F4CA70"/>
		<stop  offset="0.9946" style="stop-color:#DC9E40"/>
	</linearGradient>
	<path fill="url(#SVGID_36_)" d="M91.1,28.1c-1,0.9-2.6,1-3.9,0.8c-0.1,0-0.1-0.2,0-0.2c0.6,0,1.3,0.1,1.9,0
		C89.8,28.7,90.4,28.3,91.1,28.1C91.1,28,91.2,28.1,91.1,28.1L91.1,28.1z"/>
	
		<linearGradient id="SVGID_37_" gradientUnits="userSpaceOnUse" x1="-39.8127" y1="32.4568" x2="40.9422" y2="32.4568" gradientTransform="matrix(-1 0 0 1 60.4112 0)">
		<stop  offset="0" style="stop-color:#D5A247"/>
		<stop  offset="0.5054" style="stop-color:#F4CA70"/>
		<stop  offset="0.9946" style="stop-color:#DC9E40"/>
	</linearGradient>
	<path fill="url(#SVGID_37_)" d="M74.7,29.9c1.1,0.3,2,0.9,2.8,1.6c1,0.9,2.1,2,2.7,3.2c0.1,0.1-0.1,0.4-0.3,0.3
		C78,33.6,77.2,30.7,74.7,29.9C74.7,29.9,74.7,29.9,74.7,29.9L74.7,29.9z"/>
	
		<linearGradient id="SVGID_38_" gradientUnits="userSpaceOnUse" x1="-39.8127" y1="34.5984" x2="40.9422" y2="34.5984" gradientTransform="matrix(-1 0 0 1 60.4112 0)">
		<stop  offset="0" style="stop-color:#D5A247"/>
		<stop  offset="0.5054" style="stop-color:#F4CA70"/>
		<stop  offset="0.9946" style="stop-color:#DC9E40"/>
	</linearGradient>
	<path fill="url(#SVGID_38_)" d="M80,34.9c-0.2,0-0.4-0.1-0.6-0.3c-0.1-0.1-0.2-0.4,0-0.5c0.1-0.1,0.2-0.2,0.4-0.1
		c0.3,0.1,0.5,0.3,0.7,0.6c0.2,0.2,0.2,0.6-0.1,0.7c-0.2,0.1-0.5-0.1-0.7-0.2c-0.2-0.2-0.3-0.5-0.2-0.7c0.1-0.1,0.2-0.1,0.3,0
		c0.1,0.1,0.1,0.2,0.2,0.3c0,0,0,0.1,0.1,0.1c0,0,0.1,0.1,0.1,0.1C80.1,34.8,80,34.8,80,34.9C80,34.9,79.9,34.8,80,34.9
		c-0.1-0.1-0.1-0.1-0.2-0.2c-0.1-0.1-0.2-0.2-0.3-0.2c0.1,0,0.2,0,0.3,0c0-0.1,0-0.2,0.1-0.1c0,0,0.1,0,0.1,0.1
		c0.1,0,0.1,0.1,0.2,0.1C80.3,34.6,80.2,34.9,80,34.9L80,34.9z"/>
	
		<linearGradient id="SVGID_39_" gradientUnits="userSpaceOnUse" x1="-39.8127" y1="30.8242" x2="40.9422" y2="30.8242" gradientTransform="matrix(-1 0 0 1 60.4112 0)">
		<stop  offset="0" style="stop-color:#D5A247"/>
		<stop  offset="0.5054" style="stop-color:#F4CA70"/>
		<stop  offset="0.9946" style="stop-color:#DC9E40"/>
	</linearGradient>
	<path fill="url(#SVGID_39_)" d="M83.6,31.3c-1.2,0.1-2.4,0-3.6-0.1c-0.9-0.1-2-0.1-2.8-0.5c-0.1,0-0.1-0.2,0-0.2
		c0.9-0.2,1.8,0.1,2.7,0.3c1.2,0.2,2.5,0.3,3.8,0.4C83.7,31.1,83.7,31.2,83.6,31.3L83.6,31.3z"/>
	
		<linearGradient id="SVGID_40_" gradientUnits="userSpaceOnUse" x1="-39.8127" y1="31.1522" x2="40.9422" y2="31.1522" gradientTransform="matrix(-1 0 0 1 60.4112 0)">
		<stop  offset="0" style="stop-color:#D5A247"/>
		<stop  offset="0.5054" style="stop-color:#F4CA70"/>
		<stop  offset="0.9946" style="stop-color:#DC9E40"/>
	</linearGradient>
	<path fill="url(#SVGID_40_)" d="M83.9,30.8c0.2-0.1,0.4-0.1,0.6,0c0.2,0.1,0.2,0.4,0.1,0.5c-0.3,0.3-0.8,0.3-1.1,0
		c-0.2-0.1-0.2-0.5,0.1-0.6c0.2-0.1,0.4-0.1,0.6,0c0.3,0.1,0.3,0.6-0.1,0.6c-0.1,0-0.3,0-0.4,0c0-0.2,0-0.4,0.1-0.6
		c0.2,0.1,0.3,0.1,0.4,0c0,0.2,0,0.4,0,0.5c-0.1,0-0.2-0.1-0.2-0.1C83.7,31.2,83.7,30.9,83.9,30.8L83.9,30.8z"/>
	
		<linearGradient id="SVGID_41_" gradientUnits="userSpaceOnUse" x1="-39.8127" y1="24.9859" x2="40.9422" y2="24.9859" gradientTransform="matrix(-1 0 0 1 60.4112 0)">
		<stop  offset="0" style="stop-color:#D5A247"/>
		<stop  offset="0.5054" style="stop-color:#F4CA70"/>
		<stop  offset="0.9946" style="stop-color:#DC9E40"/>
	</linearGradient>
	<path fill="url(#SVGID_41_)" d="M91.4,22.2c-0.6,1.3-1.4,2.5-2.4,3.5c-0.7,0.8-2,2-3.1,2.2c-0.1,0-0.2-0.1-0.1-0.1
		c0.3-0.4,0.7-0.6,1.1-0.9c0.6-0.4,1.2-0.8,1.7-1.3c1.1-1,1.8-2.2,2.6-3.4C91.3,22,91.4,22.1,91.4,22.2L91.4,22.2z"/>
	
		<linearGradient id="SVGID_42_" gradientUnits="userSpaceOnUse" x1="-39.8127" y1="22.017" x2="40.9422" y2="22.017" gradientTransform="matrix(-1 0 0 1 60.4112 0)">
		<stop  offset="0" style="stop-color:#D5A247"/>
		<stop  offset="0.5054" style="stop-color:#F4CA70"/>
		<stop  offset="0.9946" style="stop-color:#DC9E40"/>
	</linearGradient>
	<path fill="url(#SVGID_42_)" d="M91.3,21.9c0.1-0.2,0.2-0.3,0.4-0.5c0.2-0.1,0.5,0,0.5,0.3c0,0.4-0.3,0.7-0.7,0.9
		c-0.3,0.1-0.6-0.1-0.4-0.4c0.1-0.2,0.3-0.4,0.5-0.5c0.2-0.1,0.6,0.2,0.4,0.4c-0.1,0.2-0.2,0.3-0.3,0.5c-0.1-0.1-0.3-0.3-0.4-0.4
		c0.2-0.1,0.4-0.2,0.4-0.4c0.1,0.1,0.3,0.3,0.4,0.4c-0.1,0-0.2,0.1-0.3,0.1C91.4,22.2,91.2,22.1,91.3,21.9L91.3,21.9z"/>
	
		<linearGradient id="SVGID_43_" gradientUnits="userSpaceOnUse" x1="-39.8127" y1="26.1467" x2="40.9422" y2="26.1467" gradientTransform="matrix(-1 0 0 1 60.4112 0)">
		<stop  offset="0" style="stop-color:#D5A247"/>
		<stop  offset="0.5054" style="stop-color:#F4CA70"/>
		<stop  offset="0.9946" style="stop-color:#DC9E40"/>
	</linearGradient>
	<path fill="url(#SVGID_43_)" d="M97.1,26.2c-1,0.3-2.1,0.4-3.1,0.3c-0.7-0.1-1.7-0.1-2.3-0.5c-0.1-0.1-0.1-0.2,0-0.2
		c0.6-0.2,1.5,0.1,2.1,0.2c1.1,0.2,2.1,0.1,3.3,0C97.2,26.1,97.2,26.2,97.1,26.2L97.1,26.2z"/>
	
		<linearGradient id="SVGID_44_" gradientUnits="userSpaceOnUse" x1="-39.8127" y1="26.2579" x2="40.9422" y2="26.2579" gradientTransform="matrix(-1 0 0 1 60.4112 0)">
		<stop  offset="0" style="stop-color:#D5A247"/>
		<stop  offset="0.5054" style="stop-color:#F4CA70"/>
		<stop  offset="0.9946" style="stop-color:#DC9E40"/>
	</linearGradient>
	<path fill="url(#SVGID_44_)" d="M97.2,25.9c0.2-0.1,0.4,0,0.5,0.1c0.2,0.1,0.2,0.4,0.1,0.5c-0.3,0.3-0.8,0.2-1.1,0
		c-0.2-0.1-0.2-0.5,0.1-0.6c0.2,0,0.4,0,0.6,0c0.4,0.1,0.2,0.6-0.2,0.6c-0.1,0-0.2,0-0.3,0c0-0.2,0-0.4,0.1-0.6
		c0.1,0.1,0.3,0.2,0.4,0.1c0,0.2,0,0.4,0,0.5c-0.1-0.1-0.2-0.2-0.3-0.2C97,26.2,97,26,97.2,25.9L97.2,25.9z"/>
	
		<linearGradient id="SVGID_45_" gradientUnits="userSpaceOnUse" x1="-39.8127" y1="28.0028" x2="40.9422" y2="28.0028" gradientTransform="matrix(-1 0 0 1 60.4112 0)">
		<stop  offset="0" style="stop-color:#D5A247"/>
		<stop  offset="0.5054" style="stop-color:#F4CA70"/>
		<stop  offset="0.9946" style="stop-color:#DC9E40"/>
	</linearGradient>
	<path fill="url(#SVGID_45_)" d="M90.8,27.8c0.1-0.2,0.2-0.3,0.4-0.3c0.2-0.1,0.4,0.2,0.4,0.4c-0.1,0.4-0.5,0.6-0.9,0.7
		c-0.3,0-0.5-0.3-0.3-0.5c0.2-0.2,0.3-0.3,0.6-0.4c0.3-0.1,0.5,0.4,0.2,0.5c-0.1,0.1-0.2,0.2-0.3,0.3c-0.1-0.2-0.2-0.3-0.3-0.5
		c0.2,0,0.4-0.1,0.5-0.3c0.1,0.2,0.2,0.3,0.3,0.5c-0.1,0-0.2,0-0.3,0C90.9,28.2,90.7,28,90.8,27.8L90.8,27.8z"/>
	
		<linearGradient id="SVGID_46_" gradientUnits="userSpaceOnUse" x1="-39.8127" y1="31.2202" x2="40.9422" y2="31.2202" gradientTransform="matrix(-1 0 0 1 60.4112 0)">
		<stop  offset="0" style="stop-color:#D5A247"/>
		<stop  offset="0.5054" style="stop-color:#F4CA70"/>
		<stop  offset="0.9946" style="stop-color:#DC9E40"/>
	</linearGradient>
	<path fill="url(#SVGID_46_)" d="M71.6,29.1c2.2,0.1,4.4,0.8,6.5,1.5c1.6,0.5,3.9,1.1,4.9,2.5c0.1,0.1-0.1,0.3-0.2,0.2
		c-0.9-0.5-1.6-1.1-2.6-1.5c-0.9-0.3-1.7-0.6-2.6-0.9c-2-0.7-3.9-1.3-6-1.6C71.4,29.4,71.4,29.1,71.6,29.1L71.6,29.1z"/>
	
		<linearGradient id="SVGID_47_" gradientUnits="userSpaceOnUse" x1="-39.8127" y1="34.6745" x2="40.9422" y2="34.6745" gradientTransform="matrix(-1 0 0 1 60.4112 0)">
		<stop  offset="0" style="stop-color:#D5A247"/>
		<stop  offset="0.5054" style="stop-color:#F4CA70"/>
		<stop  offset="0.9946" style="stop-color:#DC9E40"/>
	</linearGradient>
	<path fill="url(#SVGID_47_)" d="M82.6,32.8c1.7,0.4,3.4,1.7,3,3.7c0,0.2-0.3,0.2-0.4,0c-0.5-0.7-1.2-1.1-1.8-1.7
		c-0.5-0.6-0.8-1.3-1.1-2c-0.1-0.1,0.1-0.3,0.2-0.2c0.6,0.6,0.7,1.5,1.4,2.1c0.6,0.5,1.2,0.9,1.6,1.6c-0.1,0-0.2,0-0.4,0
		c0.1-0.9-0.2-1.8-0.9-2.3c-0.5-0.5-1.2-0.7-1.8-1.1C82.5,32.9,82.5,32.8,82.6,32.8L82.6,32.8z"/>
	
		<linearGradient id="SVGID_48_" gradientUnits="userSpaceOnUse" x1="-39.8127" y1="31.7737" x2="40.9422" y2="31.7737" gradientTransform="matrix(-1 0 0 1 60.4112 0)">
		<stop  offset="0" style="stop-color:#D5A247"/>
		<stop  offset="0.5054" style="stop-color:#F4CA70"/>
		<stop  offset="0.9946" style="stop-color:#DC9E40"/>
	</linearGradient>
	<path fill="url(#SVGID_48_)" d="M76.4,33.7c-0.3-0.6-0.5-1.2-0.7-1.9c-0.2-0.7-0.6-1.2-0.9-1.9c0-0.1,0.1-0.2,0.1-0.1
		C76.1,30.6,76.1,32.5,76.4,33.7C76.4,33.7,76.4,33.7,76.4,33.7L76.4,33.7z"/>
	
		<linearGradient id="SVGID_49_" gradientUnits="userSpaceOnUse" x1="-39.8127" y1="34.999" x2="40.9422" y2="34.999" gradientTransform="matrix(-1 0 0 1 60.4112 0)">
		<stop  offset="0" style="stop-color:#D5A247"/>
		<stop  offset="0.5054" style="stop-color:#F4CA70"/>
		<stop  offset="0.9946" style="stop-color:#DC9E40"/>
	</linearGradient>
	<path fill="url(#SVGID_49_)" d="M76.3,33.3c1.1,0.7,1.6,2,1.6,3.3c0,0.1-0.1,0.1-0.1,0.1c-0.6-0.2-1.1-0.5-1.4-1.1
		c-0.3-0.7-0.1-1.4-0.3-2.1C76,33.3,76.3,33.2,76.3,33.3c0.3,0.5,0.1,1,0.2,1.5c0.1,0.9,0.5,1.4,1.3,1.8c-0.1,0-0.1,0.1-0.2,0.1
		c-0.2-0.5-0.2-1.1-0.4-1.7c-0.2-0.7-0.7-1-1.1-1.6C76.2,33.4,76.2,33.3,76.3,33.3L76.3,33.3z"/>
	
		<linearGradient id="SVGID_50_" gradientUnits="userSpaceOnUse" x1="-39.8127" y1="29.9336" x2="40.9422" y2="29.9336" gradientTransform="matrix(-1 0 0 1 60.4112 0)">
		<stop  offset="0" style="stop-color:#D5A247"/>
		<stop  offset="0.5054" style="stop-color:#F4CA70"/>
		<stop  offset="0.9946" style="stop-color:#DC9E40"/>
	</linearGradient>
	<path fill="url(#SVGID_50_)" d="M83.6,28.2c1.6,0,3.1,0.3,4.6,0.8c1.3,0.5,2.9,1.3,3.8,2.4c0.1,0.1,0,0.2-0.1,0.2
		c-1.3-0.7-2.5-1.7-3.9-2.3c-1.4-0.6-2.9-0.8-4.4-0.9C83.5,28.4,83.5,28.2,83.6,28.2L83.6,28.2z"/>
	
		<linearGradient id="SVGID_51_" gradientUnits="userSpaceOnUse" x1="-39.8127" y1="30.8518" x2="40.9422" y2="30.8518" gradientTransform="matrix(-1 0 0 1 60.4112 0)">
		<stop  offset="0" style="stop-color:#D5A247"/>
		<stop  offset="0.5054" style="stop-color:#F4CA70"/>
		<stop  offset="0.9946" style="stop-color:#DC9E40"/>
	</linearGradient>
	<path fill="url(#SVGID_51_)" d="M88.7,29.4c0.5,0.4,0.9,0.9,1.3,1.3c0.3,0.4,0.8,0.9,0.9,1.5c0,0.1,0,0.1-0.1,0.1
		c-0.4-0.4-0.7-1-1.1-1.5c-0.4-0.4-0.8-0.8-1.1-1.3C88.6,29.4,88.7,29.4,88.7,29.4L88.7,29.4z"/>
	
		<linearGradient id="SVGID_52_" gradientUnits="userSpaceOnUse" x1="-39.8127" y1="33.3764" x2="40.9422" y2="33.3764" gradientTransform="matrix(-1 0 0 1 60.4112 0)">
		<stop  offset="0" style="stop-color:#D5A247"/>
		<stop  offset="0.5054" style="stop-color:#F4CA70"/>
		<stop  offset="0.9946" style="stop-color:#DC9E40"/>
	</linearGradient>
	<path fill="url(#SVGID_52_)" d="M90.9,32.2c0.9,0.6,1.8,1.2,2,2.4c0,0.1-0.1,0.3-0.3,0.2c-0.5-0.3-1.2-0.6-1.5-1.1
		c-0.2-0.4-0.5-1-0.5-1.5c0-0.1,0.2-0.2,0.3-0.1c0.2,0.4,0.2,0.9,0.4,1.3c0.3,0.5,0.9,0.8,1.4,1.1c-0.1,0.1-0.2,0.1-0.3,0.2
		c-0.1-0.6-0.3-1.1-0.8-1.4C91.4,32.9,91.1,32.7,90.9,32.2C90.8,32.2,90.9,32.2,90.9,32.2L90.9,32.2z"/>
	
		<linearGradient id="SVGID_53_" gradientUnits="userSpaceOnUse" x1="-39.8127" y1="22.2295" x2="40.9422" y2="22.2295" gradientTransform="matrix(-1 0 0 1 60.4112 0)">
		<stop  offset="0" style="stop-color:#D5A247"/>
		<stop  offset="0.5054" style="stop-color:#F4CA70"/>
		<stop  offset="0.9946" style="stop-color:#DC9E40"/>
	</linearGradient>
	<path fill="url(#SVGID_53_)" d="M96.9,23.3c0.4-1.2,1.6-2.1,2.8-2.3c0.1,0,0.2,0,0.1,0.1c-0.2,0.6-0.4,1.3-0.9,1.7
		c-0.2,0.2-0.5,0.3-0.7,0.4c-0.4,0.1-0.8,0.1-1.1,0.3C96.9,23.6,96.8,23.3,96.9,23.3c0.5-0.4,1-0.3,1.5-0.5c0.7-0.3,1-1,1.2-1.7
		c0.1,0,0.1,0.1,0.2,0.1c-0.5,0.3-1.1,0.4-1.6,0.7c-0.5,0.4-0.7,1-1.2,1.4C97,23.4,96.9,23.3,96.9,23.3L96.9,23.3z"/>
	
		<linearGradient id="SVGID_54_" gradientUnits="userSpaceOnUse" x1="-39.8127" y1="29.1613" x2="40.9422" y2="29.1613" gradientTransform="matrix(-1 0 0 1 60.4112 0)">
		<stop  offset="0" style="stop-color:#D5A247"/>
		<stop  offset="0.5054" style="stop-color:#F4CA70"/>
		<stop  offset="0.9946" style="stop-color:#DC9E40"/>
	</linearGradient>
	<path fill="url(#SVGID_54_)" d="M56.3,28.8c4.1,0,8.2,0,12.3,0c0.4,0,0.4,0.6,0,0.6c-4.1,0-8.2,0-12.3,0
		C55.9,29.5,55.9,28.8,56.3,28.8L56.3,28.8z"/>
	
		<linearGradient id="SVGID_55_" gradientUnits="userSpaceOnUse" x1="-39.8127" y1="29.1613" x2="40.9422" y2="29.1613" gradientTransform="matrix(-1 0 0 1 60.4112 0)">
		<stop  offset="0" style="stop-color:#D5A247"/>
		<stop  offset="0.5054" style="stop-color:#F4CA70"/>
		<stop  offset="0.9946" style="stop-color:#DC9E40"/>
	</linearGradient>
	<path fill="url(#SVGID_55_)" d="M75.9,29.5c-6.4,0-12.8,0-19.2,0c-10.1,0-20.2,0-30.3,0c-2.3,0-4.7,0-7,0c-0.4,0-0.4-0.6,0-0.6
		c6.4,0,12.8,0,19.2,0c10.1,0,20.2,0,30.3,0c2.3,0,4.7,0,7,0C76.4,28.8,76.4,29.5,75.9,29.5L75.9,29.5z"/>
</g>
</svg>
